<?xml version="1.0" standalone="no"?>
<!DOCTYPE svg PUBLIC "-//W3C//DTD SVG 20010904//EN"
 "http://www.w3.org/TR/2001/REC-SVG-20010904/DTD/svg10.dtd">
<svg version="1.0" xmlns="http://www.w3.org/2000/svg"
 width="1280.000000pt" height="914.000000pt" viewBox="0 0 1280.000000 914.000000"
 preserveAspectRatio="xMidYMid meet">
<g transform="translate(0.000000,914.000000) scale(0.100000,-0.100000)"
fill="#000000" stroke="none">
<path d="M10370 9130 c-14 -5 -979 -183 -2145 -395 -2594 -472 -2421 -440
-2486 -465 -183 -73 -369 -276 -440 -484 -67 -192 -57 -390 30 -608 16 -42
262 -496 547 -1009 284 -514 553 -999 596 -1078 67 -119 78 -146 66 -156 -7
-7 -490 -275 -1073 -596 -2859 -1572 -3340 -1838 -3342 -1846 -2 -5 36 -22 84
-37 49 -16 144 -52 213 -81 146 -62 284 -105 430 -137 92 -19 135 -22 345 -23
213 0 253 3 355 23 141 29 296 78 445 142 343 147 671 203 983 169 214 -23
386 -69 627 -169 163 -67 298 -110 445 -142 145 -30 521 -33 675 -4 139 26
300 76 468 145 438 181 776 221 1181 140 130 -26 256 -67 446 -144 184 -75
257 -98 410 -131 158 -35 450 -44 623 -20 103 15 304 60 315 71 2 2 -90 174
-206 382 -205 370 -940 1697 -1854 3347 -252 456 -458 836 -456 845 3 12 71
28 343 78 2184 398 2611 477 2680 494 167 44 334 144 449 271 302 332 283 856
-41 1169 -130 126 -276 201 -464 238 -111 22 -206 26 -249 11z"/>
<path d="M10679 6360 c-746 -132 -1288 -816 -1244 -1570 21 -366 148 -687 372
-944 383 -437 1042 -606 1617 -415 481 160 861 567 986 1059 117 458 18 936
-270 1309 -227 294 -568 498 -935 561 -153 26 -376 26 -526 0z"/>
<path d="M1400 1514 c-188 -23 -368 -72 -579 -158 -197 -80 -317 -119 -455
-145 -88 -17 -286 -40 -353 -41 -10 0 -13 -124 -13 -586 l0 -587 63 6 c290 27
478 74 742 185 152 63 285 106 411 131 405 81 753 42 1187 -133 219 -89 318
-119 472 -145 280 -48 331 -49 556 -17 201 28 359 73 555 157 358 153 697 207
1036 165 207 -26 351 -67 607 -171 186 -76 296 -109 446 -134 280 -48 331 -49
556 -17 205 29 334 65 554 156 238 99 388 141 595 165 157 19 294 19 442 1
207 -26 354 -67 609 -172 185 -75 294 -108 444 -133 280 -48 331 -49 556 -17
205 29 334 65 554 156 238 99 388 141 595 165 347 41 645 -6 1038 -165 265
-107 443 -151 720 -177 l62 -6 0 587 c0 462 -3 586 -12 586 -7 0 -66 5 -132
10 -232 19 -427 72 -721 193 -234 98 -420 137 -680 144 -316 9 -544 -36 -855
-169 -540 -232 -1059 -231 -1604 1 -281 121 -516 171 -796 171 -283 0 -509
-49 -805 -175 -535 -227 -1055 -227 -1590 0 -298 127 -516 174 -802 175 -270
0 -483 -45 -785 -166 -228 -91 -341 -125 -509 -153 -400 -65 -712 -19 -1174
172 -127 53 -281 99 -410 123 -87 16 -442 28 -525 18z"/>
</g>
</svg>
