<?xml version="1.0" standalone="no"?>
<!DOCTYPE svg PUBLIC "-//W3C//DTD SVG 20010904//EN"
 "http://www.w3.org/TR/2001/REC-SVG-20010904/DTD/svg10.dtd">
<svg version="1.0" xmlns="http://www.w3.org/2000/svg"
 width="1280.000000pt" height="1280.000000pt" viewBox="0 0 1280.000000 1280.000000"
 preserveAspectRatio="xMidYMid meet">
<g transform="translate(0.000000,1280.000000) scale(0.100000,-0.100000)"
fill="#000000" stroke="none">
<path d="M7096 12573 c-29 -451 -158 -848 -389 -1193 -136 -204 -262 -353
-526 -625 -462 -475 -767 -820 -1073 -1212 -678 -869 -1065 -1614 -1164 -2238
-23 -148 -23 -556 0 -775 131 -1233 730 -2140 1954 -2959 68 -45 125 -81 127
-79 2 2 18 44 35 93 42 121 192 424 278 562 139 222 340 487 538 709 132 148
348 360 654 643 374 346 542 507 664 639 114 123 306 370 399 513 238 364 355
799 387 1439 21 406 -22 787 -141 1265 -254 1022 -868 2286 -1488 3065 -78 98
-228 260 -241 260 -4 0 -10 -48 -14 -107z"/>
<path d="M9530 9463 c0 -5 15 -100 34 -213 103 -617 122 -1191 56 -1712 -23
-182 -52 -290 -120 -446 -225 -522 -857 -1301 -1590 -1963 -96 -87 -209 -195
-250 -241 -342 -375 -562 -707 -588 -885 -6 -38 -18 -119 -27 -181 -19 -124
-22 -234 -6 -275 6 -15 13 -27 16 -27 3 0 58 18 123 41 292 101 560 162 1117
254 687 114 930 177 1200 310 476 234 931 629 1129 979 97 172 212 585 253
906 20 165 23 590 4 760 -92 854 -424 1680 -915 2284 -104 127 -250 276 -352
359 -70 56 -84 64 -84 50z"/>
<path d="M3350 8030 c-193 -133 -367 -278 -525 -435 -254 -252 -425 -485 -570
-776 -236 -476 -293 -933 -170 -1364 204 -716 757 -1290 1545 -1605 376 -150
894 -259 1309 -276 l136 -5 -54 33 c-160 98 -484 318 -606 410 -572 431 -922
887 -1070 1394 -29 97 -84 478 -111 754 -49 520 35 1287 197 1785 27 84 49
155 49 159 0 13 -19 2 -130 -74z"/>
<path d="M9725 3255 c-526 -88 -684 -112 -1215 -186 -531 -74 -883 -147 -1260
-261 -187 -56 -383 -129 -373 -139 25 -24 578 -175 983 -268 444 -102 1104
-221 1227 -221 20 0 421 84 891 187 l855 188 18 41 c10 22 24 73 31 112 35
206 -73 387 -312 526 -77 45 -247 117 -271 115 -8 -1 -266 -43 -574 -94z"/>
<path d="M2473 3074 c-177 -142 -282 -285 -335 -454 -36 -119 -31 -345 13
-486 l9 -30 193 -18 c519 -47 1128 -125 1501 -192 466 -83 661 -139 1267 -367
630 -237 840 -291 1431 -367 365 -48 699 -94 1323 -184 248 -36 515 -72 594
-81 176 -19 277 -44 589 -146 134 -44 296 -93 360 -109 125 -31 259 -56 267
-48 2 2 -4 33 -15 69 -59 191 -71 402 -31 544 34 122 74 189 171 285 90 90
167 141 292 192 72 29 95 48 83 68 -2 4 -53 10 -112 14 -528 34 -1425 191
-2553 447 -383 87 -578 138 -875 229 -517 158 -701 207 -957 250 -255 43 -938
137 -2383 330 -291 39 -574 77 -627 85 -138 21 -140 21 -205 -31z"/>
<path d="M2985 1595 c-192 -57 -359 -106 -370 -109 -16 -5 -4 -15 61 -54 245
-146 384 -315 435 -528 18 -77 21 -108 16 -229 -5 -129 -17 -202 -62 -379 -7
-27 -6 -28 16 -23 58 15 2187 873 2189 882 2 12 -594 238 -895 339 -373 125
-686 194 -920 201 l-120 4 -350 -104z"/>
<path d="M10476 1595 c-231 -59 -436 -265 -491 -496 -8 -35 -15 -104 -15 -154
0 -207 74 -356 211 -424 83 -41 156 -54 274 -49 280 14 514 198 566 445 14 72
7 245 -15 328 -41 154 -135 283 -243 332 -71 33 -196 41 -287 18z"/>
<path d="M2144 1279 c-135 -16 -246 -71 -336 -166 -94 -102 -138 -235 -138
-422 0 -67 7 -143 15 -179 42 -178 155 -298 338 -359 75 -24 96 -27 242 -27
128 -1 172 3 220 17 139 43 239 122 293 230 112 223 88 561 -53 733 -77 94
-215 156 -387 174 -55 5 -105 9 -112 9 -6 -1 -43 -5 -82 -10z"/>
</g>
</svg>
