<?xml version="1.0" standalone="no"?>
<!DOCTYPE svg PUBLIC "-//W3C//DTD SVG 20010904//EN"
 "http://www.w3.org/TR/2001/REC-SVG-20010904/DTD/svg10.dtd">
<svg version="1.0" xmlns="http://www.w3.org/2000/svg"
 width="816.000000pt" height="1280.000000pt" viewBox="0 0 816.000000 1280.000000"
 preserveAspectRatio="xMidYMid meet">
<g transform="translate(0.000000,1280.000000) scale(0.100000,-0.100000)"
fill="#000000" stroke="none">
<path d="M2921 12779 c-109 -21 -206 -52 -276 -87 -195 -97 -365 -277 -446
-474 -55 -135 -63 -180 -63 -353 0 -145 3 -168 27 -248 78 -255 231 -441 460
-562 271 -143 585 -147 862 -10 234 115 403 319 481 580 24 79 27 107 28 235
0 172 -19 262 -89 405 -132 273 -364 446 -685 511 -136 28 -174 28 -299 3z"/>
<path d="M5495 11470 c-269 -82 -520 -159 -557 -170 -38 -11 -68 -26 -68 -32
0 -8 227 -801 577 -2012 21 -73 -61 60 -339 546 l-318 555 -370 251 c-203 139
-374 252 -380 252 -6 0 -317 -205 -692 -455 l-683 -455 -337 -972 c-216 -623
-345 -978 -356 -988 -11 -8 -454 -283 -985 -610 -531 -327 -966 -600 -967
-605 0 -11 423 -711 440 -729 5 -5 65 27 143 78 74 47 142 86 151 86 11 0 245
-458 842 -1652 l826 -1653 -256 -1309 c-141 -720 -255 -1310 -253 -1313 9 -8
1052 -161 1059 -155 4 4 60 207 125 451 65 245 124 446 130 448 9 3 600 -962
619 -1010 5 -15 26 -17 178 -17 l171 0 53 150 53 149 -402 843 c-221 464 -410
861 -420 883 l-18 40 95 490 95 490 192 195 c106 107 424 430 707 718 346 352
517 519 523 513 6 -6 101 -264 211 -573 l202 -563 873 -1625 c480 -894 877
-1629 881 -1633 7 -8 886 373 900 390 4 5 -388 1079 -872 2387 l-878 2380 -15
681 -14 682 -106 642 c-58 353 -105 653 -105 666 0 19 7 26 33 33 305 86 870
258 873 266 2 6 -231 776 -519 1711 -375 1221 -526 1700 -537 1702 -8 1 -235
-65 -505 -147z m-2119 -3768 c106 -163 294 -455 418 -648 l227 -351 15 -177
14 -176 -579 -1008 c-409 -711 -620 -1090 -720 -1289 -78 -156 -144 -283 -149
-283 -12 0 -1361 2706 -1354 2717 4 5 308 118 677 250 l670 240 237 429 c131
236 258 466 283 512 25 45 51 82 58 82 7 0 98 -134 203 -298z"/>
</g>
</svg>
